;<svg
  version="1.1"
  id="Layer_1"
  xmlns="http://www.w3.org/2000/svg"
  xmlns:xlink="http://www.w3.org/1999/xlink"
  x="0px"
  y="0px"
  viewBox="0 0 512 512"
  style="enable-background:new 0 0 512 512;"
  xmlSpace="preserve"
>
  <g>
    <path
      style="fill:#4482C3;"
      d="M75.363,126.927L75.363,126.927c-17.249,19.085-45.206,19.085-62.446,0
		c-17.249-19.085-17.196-48.94,0-75.29L44.14,0.004l31.223,51.633C92.551,82.189,92.612,107.842,75.363,126.927"
    />
    <path
      style="fill:#FBD971;"
      d="M256,0C189.176,0,128.354,25.627,82.768,67.558c9.048,23.57,6.744,43.714-7.406,59.366
		c-12.597,13.948-30.888,17.585-46.566,11.158C10.435,173.383,0,213.46,0,256c0,141.383,114.617,256,256,256s256-114.617,256-256
		S397.383,0,256,0"
    />
    <path
      style="fill:#F29C1F;"
      d="M344.276,379.586c-4.873,0-8.828-3.955-8.828-8.828c0-43.803-35.646-79.448-79.448-79.448
		c-43.802,0-79.448,35.646-79.448,79.448c0,4.873-3.955,8.828-8.828,8.828s-8.828-3.955-8.828-8.828
		c0-53.539,43.564-97.103,97.103-97.103s97.103,43.564,97.103,97.103C353.104,375.632,349.149,379.586,344.276,379.586"
    />
    <g>
      <path
        style="fill:#AF8066;"
        d="M388.414,167.724c0,19.5-15.81,35.31-35.31,35.31c-19.5,0-35.31-15.81-35.31-35.31
			s15.81-35.31,35.31-35.31C372.604,132.414,388.414,148.224,388.414,167.724"
      />
      <path
        style="fill:#AF8066;"
        d="M194.207,167.724c0,19.5-15.81,35.31-35.31,35.31c-19.5,0-35.31-15.81-35.31-35.31
			s15.81-35.31,35.31-35.31C178.397,132.414,194.207,148.224,194.207,167.724"
      />
    </g>
    <g>
      <path
        style="fill:#F29C1F;"
        d="M393.246,118.871c-2.26,0-4.52-0.865-6.241-2.586c-8.43-8.43-20.427-12.014-32.124-9.622
			c-4.758,0.989-9.446-2.092-10.425-6.868s2.092-9.446,6.868-10.425c17.514-3.602,35.522,1.792,48.163,14.433
			c3.452,3.452,3.452,9.031,0,12.482C397.766,118.006,395.506,118.871,393.246,118.871"
      />
      <path
        style="fill:#F29C1F;"
        d="M118.858,118.871c-2.26,0-4.52-0.865-6.241-2.586c-3.452-3.452-3.452-9.031,0-12.482
			c12.606-12.615,30.57-18.026,48.04-14.46c4.776,0.971,7.857,5.632,6.894,10.408c-0.98,4.776-5.632,7.848-10.417,6.894
			c-11.644-2.348-23.631,1.236-32.035,9.64C123.377,118.006,121.118,118.871,118.858,118.871"
      />
    </g>
  </g>
  <g></g>
  <g></g>
  <g></g>
  <g></g>
  <g></g>
  <g></g>
  <g></g>
  <g></g>
  <g></g>
  <g></g>
  <g></g>
  <g></g>
  <g></g>
  <g></g>
  <g></g>
</svg>
